# xmcd CD database file
#
# Track frame offsets:
#	183
#	10588
#	23843
#	35635
#	48218
#	62508
#	75908
#	94243
#	108640
#	122603
#	134250
#	146215
#	158585
#	169123
#	179258
#	188893
#	211055
#	221640
#	240525
#	254645
#	267318
#	278760
#	290640
#	307510
#	326810
#
# Disc length: 4585 seconds
#
# Revision: 0
# Processed by: cddbd v1.5.2PL0 Copyright (c) Steve Scherf et al.
# Submitted via: CDex 1.70beta2
#
DISCID=6011e719
DTITLE=The Mark Leeman Five - Memorial Album
DYEAR=1991
DGENRE=Blues
TTITLE0=Portland Town
TTITLE1=Gotta Get Myself Together
TTITLE2=Got My Mojo Working
TTITLE3=Green Onions
TTITLE4=Shame, Shame, Shame
TTITLE5=Work Song
TTITLE6=Forbidden Fruit LP Version)
TTITLE7=Let The Sun Shine In
TTITLE8=Frenzy
TTITLE9=On The Horizon
TTITLE10=Blow My Blues Away
TTITLE11=Money
TTITLE12=Back Home
TTITLE13=The Boy Who Walks All Alone
TTITLE14=Chasing Shadows
TTITLE15=Moanin' (Instrumental)
TTITLE16=Dr Feelgood
TTITLE17=You Can't Judge A Book By Its Cover
TTITLE18=Just A Little Lovin'
TTITLE19=Going To Bluesville (Vocals Roger Peacock)
TTITLE20=Follow Me (Vocals Roger Peacock)
TTITLE21=Gather Up The Pieces (Vocals Roger Peacock)
TTITLE22=Forbidden Fruit (Vocals Roger Peacock)
TTITLE23=Portland Town (Extended Version)
TTITLE24=Gotta Get Myself Together (Alternative Version)
EXTD=YEAR: 1991
EXTT0=
EXTT1=
EXTT2=
EXTT3=
EXTT4=
EXTT5=
EXTT6=
EXTT7=
EXTT8=
EXTT9=
EXTT10=
EXTT11=
EXTT12=
EXTT13=
EXTT14=
EXTT15=
EXTT16=
EXTT17=
EXTT18=
EXTT19=
EXTT20=
EXTT21=
EXTT22=
EXTT23=
EXTT24=
PLAYORDER=
